<svg width="77" height="28" viewBox="0 0 77 28" fill="none" xmlns="http://www.w3.org/2000/svg">
<g clip-path="url(#clip0_1706_1091)">
<path d="M11.1163 1.84863C11.1163 1.84863 6.11596 3.62005 3.21577 4.87645M8.51643 24.1142C5.83364 24.1142 2.20178 18.0508 1.76807 16.3002C0.281486 10.3 9.56806 7.54109 13.9632 6.51761M8.51643 24.1142C11.1992 24.1142 13.9773 17.8156 14.8447 15.6274C16.0145 12.6767 15.6823 9.11944 13.9632 6.51761M8.51643 24.1142C5.83364 24.1142 6.90997 19.0813 8.51643 17.5116M13.9632 6.51761L17.1592 5.83266" stroke="#18191A" stroke-width="2.59743"/>
<path d="M17.4072 1.12057H17.1734V0.976377H17.8124V1.12057H17.5787V1.75635H17.4072V1.12057ZM17.8095 0.976377H18.0509L18.2334 1.51274H18.2356L18.4082 0.976377H18.6496V1.75635H18.489V1.2036H18.4868L18.2956 1.75635H18.1635L17.9723 1.20906H17.9701V1.75635H17.8095V0.976377Z" fill="#18191A"/>
<path d="M25.282 14.0321L26.8382 9.93725H26.8717L28.3778 14.0321H25.282ZM25.533 7.18652L21.0149 18.3457H23.6588L24.5959 15.8607H29.0638L29.9675 18.3457H32.6951L28.2271 7.18652H25.533Z" fill="#18191A"/>
<path d="M34.5229 14.0998C34.5229 13.7768 34.5564 13.459 34.6233 13.1464C34.6903 12.8338 34.8018 12.5577 34.958 12.3181C35.1254 12.0784 35.3429 11.8857 35.6106 11.7398C35.8784 11.5835 36.213 11.5054 36.6147 11.5054C37.0163 11.5054 37.3509 11.5835 37.6187 11.7398C37.8976 11.8857 38.1151 12.0784 38.2713 12.3181C38.4386 12.5577 38.5558 12.8338 38.6227 13.1464C38.6896 13.459 38.7231 13.7768 38.7231 14.0998C38.7231 14.4228 38.6896 14.7406 38.6227 15.0532C38.5558 15.3553 38.4386 15.6314 38.2713 15.8815C38.1151 16.1212 37.8976 16.3139 37.6187 16.4598C37.3509 16.6057 37.0163 16.6786 36.6147 16.6786C36.213 16.6786 35.8784 16.6057 35.6106 16.4598C35.3429 16.3139 35.1254 16.1212 34.958 15.8815C34.8018 15.6314 34.6903 15.3553 34.6233 15.0532C34.5564 14.7406 34.5229 14.4228 34.5229 14.0998ZM32.1467 14.0998C32.1467 14.7458 32.2527 15.3293 32.4647 15.8503C32.6766 16.3712 32.9779 16.8193 33.3683 17.1944C33.7588 17.559 34.2273 17.8404 34.7739 18.0383C35.3206 18.2363 35.9342 18.3353 36.6147 18.3353C37.2952 18.3353 37.9087 18.2363 38.4554 18.0383C39.0132 17.8404 39.4873 17.559 39.8777 17.1944C40.2682 16.8193 40.5694 16.3712 40.7814 15.8503C40.9933 15.3293 41.0993 14.7458 41.0993 14.0998C41.0993 13.4538 40.9933 12.8703 40.7814 12.3493C40.5694 11.8179 40.2682 11.3699 39.8777 11.0052C39.4873 10.6301 39.0132 10.3436 38.4554 10.1456C37.9087 9.93725 37.2952 9.83305 36.6147 9.83305C35.9342 9.83305 35.3206 9.93725 34.7739 10.1456C34.2273 10.3436 33.7588 10.6301 33.3683 11.0052C32.9779 11.3699 32.6766 11.8179 32.4647 12.3493C32.2527 12.8703 32.1467 13.4538 32.1467 14.0998Z" fill="#18191A"/>
<path d="M41.8076 10.2655V18.3457H44.1838V14.7041C44.1838 14.3394 44.2229 14.0008 44.3009 13.6882C44.379 13.3756 44.5073 13.1047 44.6858 12.8755C44.8755 12.6359 45.1209 12.4483 45.4221 12.3129C45.7233 12.1774 46.0915 12.1097 46.5265 12.1097C46.6716 12.1097 46.8222 12.1201 46.9783 12.141C47.1345 12.1514 47.2684 12.167 47.38 12.1878V10.1248C47.1903 10.0727 47.0174 10.0467 46.8612 10.0467C46.56 10.0467 46.27 10.0883 45.9911 10.1717C45.7122 10.255 45.45 10.3749 45.2046 10.5312C44.9591 10.677 44.7416 10.8594 44.552 11.0782C44.3623 11.2866 44.2117 11.5158 44.1001 11.7659H44.0667V10.2655H41.8076Z" fill="#18191A"/>
<path d="M50.4774 10.1508V7.18652H48.1012V10.1508V11.6356V16.4025C48.1012 16.8088 48.1737 17.1371 48.3187 17.3871C48.4638 17.6372 48.659 17.8299 48.9044 17.9654C49.161 18.1008 49.4511 18.1894 49.7746 18.2311C50.1093 18.2832 50.4607 18.3092 50.8288 18.3092C51.0631 18.3092 51.3029 18.304 51.5484 18.2936C51.7938 18.2832 52.0169 18.2624 52.2177 18.2311V16.5119C52.1062 16.5327 51.989 16.5484 51.8663 16.5588C51.7436 16.5692 51.6153 16.5744 51.4814 16.5744C51.0798 16.5744 50.8121 16.5119 50.6782 16.3869C50.5443 16.2618 50.4774 16.0118 50.4774 15.6367V11.6356H52.2177V10.1508H50.4774Z" fill="#18191A"/>
<path d="M52.993 7.18652V18.3457H55.3692V14.1102C55.3692 13.2871 55.5143 12.6984 55.8043 12.3441C56.0944 11.9794 56.5629 11.7971 57.21 11.7971C57.7789 11.7971 58.1749 11.9638 58.398 12.2972C58.6212 12.6202 58.7327 13.1152 58.7327 13.782V18.3457H61.1089V13.3756C61.1089 12.8755 61.0587 12.4223 60.9583 12.0159C60.8691 11.5991 60.7073 11.2501 60.473 10.9688C60.2388 10.677 59.9152 10.453 59.5025 10.2967C59.1009 10.13 58.5821 10.0467 57.9462 10.0467C57.5 10.0467 57.0426 10.1561 56.5741 10.3749C56.1055 10.5832 55.7206 10.9219 55.4194 11.3908H55.3692V7.18652H52.993Z" fill="#18191A"/>
<path d="M62.1464 12.5369C62.1799 12.0159 62.3193 11.5835 62.5648 11.2397C62.8102 10.8958 63.1225 10.6197 63.5018 10.4113C63.8811 10.2029 64.3051 10.0571 64.7736 9.97371C65.2533 9.87994 65.733 9.83305 66.2127 9.83305C66.6478 9.83305 67.0884 9.86431 67.5347 9.92683C67.9809 9.97892 68.3881 10.0883 68.7562 10.255C69.1244 10.4217 69.4256 10.6562 69.6599 10.9583C69.8941 11.2501 70.0113 11.6408 70.0113 12.1305V16.3348C70.0113 16.6994 70.0336 17.0485 70.0782 17.3819C70.1228 17.7153 70.2121 18.1686 70.3236 18.3353H67.9251C67.8805 18.2103 67.8192 17.882 67.7857 17.757C67.7634 17.6216 67.7466 17.4861 67.7355 17.3507C67.3562 17.7153 66.91 17.9706 66.3968 18.1165C65.8836 18.2623 65.3593 18.3353 64.8238 18.3353C64.411 18.3353 64.0262 18.2884 63.6692 18.1946C63.3122 18.1008 62.9998 17.955 62.7321 17.757C62.4644 17.559 62.2524 17.309 62.0962 17.0068C61.9512 16.7046 61.8787 16.3452 61.8787 15.9284C61.8787 15.4699 61.9623 15.0948 62.1297 14.8031C62.3082 14.5009 62.5313 14.2613 62.799 14.0842C63.0779 13.907 63.3903 13.7768 63.7361 13.6934C64.0931 13.5997 64.4501 13.5267 64.8071 13.4746C65.1641 13.4225 65.5155 13.3809 65.8613 13.3496C66.2071 13.3183 66.5139 13.2715 66.7817 13.2089C67.0494 13.1464 67.2614 13.0579 67.4175 12.9432C67.5737 12.8182 67.6462 12.6411 67.6351 12.4119C67.6351 12.1722 67.5905 11.9847 67.5012 11.8492C67.4231 11.7033 67.3116 11.5939 67.1665 11.521C67.0327 11.4376 66.8709 11.3855 66.6813 11.3647C66.5028 11.3334 66.3075 11.3178 66.0956 11.3178C65.627 11.3178 65.2589 11.4116 64.9911 11.5991C64.7234 11.7867 64.5672 12.0993 64.5226 12.5369H62.1464ZM67.6351 14.1779C67.5347 14.2613 67.4064 14.329 67.2502 14.3811C67.1052 14.4228 66.9434 14.4593 66.7649 14.4905C66.5976 14.5218 66.4191 14.5478 66.2295 14.5687C66.0398 14.5895 65.8502 14.6156 65.6605 14.6468C65.482 14.6781 65.3035 14.7198 65.125 14.7718C64.9577 14.8239 64.8071 14.8969 64.6732 14.9907C64.5505 15.074 64.4501 15.1834 64.372 15.3189C64.2939 15.4543 64.2549 15.6262 64.2549 15.8346C64.2549 16.0326 64.2939 16.1993 64.372 16.3348C64.4501 16.4702 64.5561 16.5796 64.6899 16.663C64.8238 16.7359 64.98 16.788 65.1585 16.8193C65.337 16.8505 65.5211 16.8661 65.7107 16.8661C66.1792 16.8661 66.5418 16.7932 66.7984 16.6473C67.055 16.5015 67.2446 16.3295 67.3673 16.1316C67.4901 15.9232 67.5626 15.7148 67.5849 15.5064C67.6184 15.298 67.6351 15.1313 67.6351 15.0063V14.1779Z" fill="#18191A"/>
<path d="M71.0711 10.2655V18.3457H73.4473V14.7041C73.4473 14.3394 73.4863 14.0008 73.5644 13.6882C73.6425 13.3756 73.7708 13.1047 73.9493 12.8755C74.1389 12.6359 74.3844 12.4483 74.6856 12.3129C74.9868 12.1774 75.3549 12.1097 75.79 12.1097C75.935 12.1097 76.0856 12.1201 76.2418 12.141C76.398 12.1514 76.5319 12.167 76.6434 12.1878V10.1248C76.4538 10.0727 76.2809 10.0467 76.1247 10.0467C75.8235 10.0467 75.5334 10.0883 75.2545 10.1717C74.9756 10.255 74.7135 10.3749 74.468 10.5312C74.2226 10.677 74.0051 10.8594 73.8154 11.0782C73.6258 11.2866 73.4752 11.5158 73.3636 11.7659H73.3301V10.2655H71.0711Z" fill="#18191A"/>
<path d="M53.5376 23.2771H55.5999L54.5871 20.5909L53.5376 23.2771ZM54.3303 20.0919H54.888L56.943 25.332H56.4072L55.7687 23.7027H53.3835L52.7523 25.332H52.2239L54.3303 20.0919ZM60.5163 25.332H60.0906V24.6128H60.076C60.027 24.7351 59.9536 24.8476 59.8558 24.9504C59.7628 25.0531 59.6552 25.1412 59.5329 25.2146C59.4105 25.2831 59.2784 25.3369 59.1366 25.3761C58.9996 25.4152 58.8626 25.4348 58.7256 25.4348C58.4369 25.4348 58.1849 25.3834 57.9696 25.2807C57.7592 25.173 57.5831 25.0287 57.4412 24.8476C57.2993 24.6617 57.1941 24.4489 57.1256 24.2091C57.0571 23.9645 57.0229 23.7076 57.0229 23.4385C57.0229 23.1694 57.0571 22.915 57.1256 22.6753C57.1941 22.4306 57.2993 22.2178 57.4412 22.0367C57.5831 21.8508 57.7592 21.704 57.9696 21.5964C58.1849 21.4888 58.4369 21.4349 58.7256 21.4349C58.8674 21.4349 59.0044 21.4521 59.1366 21.4863C59.2735 21.5206 59.4008 21.5744 59.5182 21.6478C59.6356 21.7163 59.7384 21.8019 59.8264 21.9046C59.9194 22.0074 59.9903 22.1273 60.0393 22.2643H60.0539V20.0919H60.5163V25.332ZM57.4852 23.4385C57.4852 23.6342 57.5073 23.8299 57.5513 24.0257C57.6002 24.2165 57.6736 24.3877 57.7715 24.5394C57.8742 24.6911 58.0039 24.8158 58.1604 24.9137C58.317 25.0067 58.5054 25.0531 58.7256 25.0531C58.9702 25.0531 59.1757 25.0067 59.342 24.9137C59.5133 24.8158 59.6503 24.6911 59.753 24.5394C59.8607 24.3877 59.9365 24.2165 59.9806 24.0257C60.0295 23.8299 60.0539 23.6342 60.0539 23.4385C60.0539 23.2428 60.0295 23.0495 59.9806 22.8587C59.9365 22.663 59.8607 22.4893 59.753 22.3376C59.6503 22.186 59.5133 22.0637 59.342 21.9707C59.1757 21.8728 58.9702 21.8239 58.7256 21.8239C58.5054 21.8239 58.317 21.8728 58.1604 21.9707C58.0039 22.0637 57.8742 22.186 57.7715 22.3376C57.6736 22.4893 57.6002 22.663 57.5513 22.8587C57.5073 23.0495 57.4852 23.2428 57.4852 23.4385ZM61.2518 21.545H61.6775V22.1835H61.6995C61.8218 21.9487 61.9809 21.7652 62.1766 21.6331C62.3772 21.501 62.6316 21.4349 62.9398 21.4349C63.1894 21.4349 63.4144 21.4961 63.6151 21.6184C63.8205 21.7407 63.9575 21.9267 64.026 22.1762C64.1386 21.9267 64.3049 21.7407 64.5251 21.6184C64.7453 21.4961 64.9801 21.4349 65.2297 21.4349C66.0663 21.4349 66.4847 21.8777 66.4847 22.7633V25.332H66.0223V22.7853C66.0223 22.4722 65.9562 22.2349 65.8241 22.0734C65.692 21.9071 65.4596 21.8239 65.1269 21.8239C64.9263 21.8239 64.76 21.863 64.6279 21.9413C64.4958 22.0147 64.3906 22.115 64.3123 22.2422C64.234 22.3695 64.1777 22.5162 64.1435 22.6826C64.1141 22.8441 64.0994 23.0129 64.0994 23.189V25.332H63.6371V22.7633C63.6371 22.6361 63.6224 22.5162 63.593 22.4037C63.5686 22.2863 63.5245 22.186 63.4609 22.1028C63.4022 22.0147 63.3215 21.9462 63.2187 21.8973C63.116 21.8484 62.9912 21.8239 62.8444 21.8239C62.6487 21.8239 62.4775 21.8606 62.3307 21.934C62.1888 22.0025 62.0714 22.1003 61.9784 22.2276C61.8903 22.3499 61.8243 22.4967 61.7803 22.6679C61.7362 22.8343 61.7142 23.0177 61.7142 23.2183V25.332H61.2518V21.545ZM67.226 20.0919H67.6883V20.8331H67.226V20.0919ZM67.226 21.545H67.6883V25.332H67.226V21.545ZM68.4191 21.545H68.8815V22.1982H68.8962C68.9842 21.9682 69.1408 21.7848 69.3659 21.6478C69.5909 21.5059 69.838 21.4349 70.1071 21.4349C70.3713 21.4349 70.5915 21.4692 70.7676 21.5377C70.9487 21.6062 71.093 21.704 71.2007 21.8312C71.3083 21.9536 71.3841 22.1052 71.4282 22.2863C71.4722 22.4673 71.4942 22.6704 71.4942 22.8954V25.332H71.0319V22.9688C71.0319 22.8074 71.0172 22.6581 70.9878 22.5211C70.9585 22.3792 70.9071 22.2569 70.8337 22.1542C70.7603 22.0514 70.66 21.9707 70.5328 21.912C70.4105 21.8533 70.2564 21.8239 70.0704 21.8239C69.8845 21.8239 69.7181 21.8582 69.5714 21.9267C69.4295 21.9903 69.3072 22.0808 69.2044 22.1982C69.1065 22.3107 69.0283 22.4477 68.9696 22.6092C68.9157 22.7658 68.8864 22.937 68.8815 23.1229V25.332H68.4191V21.545Z" fill="#18191A"/>
</g>
<defs>
<clipPath id="clip0_1706_1091">
<rect width="76.5" height="27.0845" fill="white" transform="translate(0.25 0.542969)"/>
</clipPath>
</defs>
</svg>
